<?xml version="1.0" encoding="UTF-8"?>
<svg version="1.1" xmlns="http://www.w3.org/2000/svg" width="512" height="512">
<path d="M0 0 C1.48811188 -0.0129007 1.48811188 -0.0129007 3.00628662 -0.02606201 C4.63014282 -0.03245193 4.63014282 -0.03245193 6.2868042 -0.03897095 C7.43211609 -0.04714844 8.57742798 -0.05532593 9.75744629 -0.06375122 C13.55466189 -0.08859513 17.35183994 -0.10512485 21.14910889 -0.11953735 C22.44937767 -0.12486103 23.74964645 -0.13018471 25.08931732 -0.13566971 C30.56243418 -0.15690333 36.03553893 -0.17602911 41.50868607 -0.1872921 C49.3139195 -0.20346583 57.11864996 -0.23647748 64.9236939 -0.29369295 C70.43056043 -0.33266053 75.93729409 -0.35195687 81.44429469 -0.35721266 C84.72247276 -0.36083356 87.99999743 -0.37507974 91.27805328 -0.4053154 C114.73210685 -0.60918665 132.06976376 2.15631543 149.78973389 18.7828064 C161.35825329 30.80693529 167.45168235 46.01684933 167.26629639 62.56015015 C167.26346649 63.52545654 167.2606366 64.49076294 167.25772095 65.48532104 C167.24660513 68.54164493 167.22151674 71.59766616 167.19598389 74.65390015 C167.18594297 76.73722922 167.17681907 78.82056293 167.16864014 80.90390015 C167.146694 85.98734852 167.11222406 91.07057317 167.07098389 96.15390015 C168.37852379 96.1469867 168.37852379 96.1469867 169.71247864 96.13993359 C190.98160468 96.02922261 212.25068064 95.94663127 233.52003479 95.89483929 C243.8060037 95.86912347 254.09177956 95.83410041 264.37762451 95.77670288 C273.34905097 95.72666425 282.32033753 95.69456108 291.29189968 95.68345767 C296.03664421 95.67697337 300.7809887 95.6618736 305.52560425 95.62524986 C310.003954 95.59096599 314.48174417 95.58091152 318.96021271 95.58836174 C320.59188136 95.5870015 322.22357143 95.57726373 323.85512543 95.55787277 C343.59638384 95.33502893 359.18659916 101.08081448 373.78973389 114.7828064 C385.3240397 126.77137425 391.39316167 141.95376436 391.33840942 158.4434967 C391.34294054 159.45388073 391.34747165 160.46426476 391.35214007 161.50526649 C391.36475971 164.87736783 391.36316525 168.24930716 391.36151123 171.62142944 C391.36749804 174.04483751 391.37430393 176.46824368 391.38186646 178.89164734 C391.39768686 184.7837855 391.40397424 190.67588593 391.40509121 196.56804099 C391.40604367 201.36131809 391.41016383 206.15458205 391.41649246 210.947855 C391.43409511 224.5584499 391.44333301 238.16901335 391.44183151 251.77961972 C391.4417516 252.51245599 391.44167169 253.24529226 391.44158936 254.00033569 C391.44150759 254.73407411 391.44142583 255.46781252 391.44134159 256.22378544 C391.44052924 268.10649118 391.45965655 279.98907 391.48786609 291.87173905 C391.51664919 304.09314823 391.53040337 316.31449561 391.52867854 328.53593951 C391.52801645 335.38912845 391.53342882 342.24218437 391.55503464 349.09534264 C391.57523715 355.54438847 391.57451743 361.99322657 391.56000137 368.44228935 C391.55791643 370.80246135 391.56259529 373.16265105 391.57472229 375.52279282 C391.68479949 398.43945693 391.68479949 398.43945693 387.07098389 409.15390015 C386.68263556 410.06979259 386.29428722 410.98568502 385.89417076 411.92933178 C380.16715576 424.80122953 369.95562137 434.74454635 357.75848389 441.46640015 C357.17896973 441.79204956 356.59945557 442.11769897 356.00238037 442.45321655 C345.78173815 447.8005965 335.06779841 448.59380549 323.72503662 448.53485107 C322.31254688 448.53831525 320.90005986 448.54308489 319.48757839 448.54903281 C315.6384448 448.56146821 311.78953653 448.55540679 307.94040251 448.54607415 C303.77673086 448.53925315 299.61309648 448.54977994 295.44943237 448.55801392 C287.30555038 448.57132104 279.16175156 448.56848701 271.01786637 448.55977599 C264.39639497 448.55298793 257.77494679 448.55208757 251.1534729 448.55534744 C249.73734841 448.55603699 249.73734841 448.55603699 248.29261535 448.55674047 C246.37444853 448.55769969 244.45628171 448.55867233 242.53811491 448.55965824 C224.5712134 448.56820329 206.60435789 448.55839192 188.63746393 448.54225715 C173.23670016 448.52885477 157.83600424 448.53118312 142.4352417 448.54501343 C124.53057394 448.5610849 106.62594644 448.5673794 88.72127247 448.55817664 C86.81034661 448.55722104 84.89942074 448.55627792 82.98849487 448.55534744 C82.04839756 448.55488462 81.10830025 448.55442179 80.13971514 448.55394494 C73.52978923 448.55135975 66.91988897 448.55571587 60.30996704 448.5627861 C52.24953665 448.57121872 44.18919386 448.568884 36.12877345 448.55294387 C32.01991378 448.54508482 27.9111999 448.54192896 23.80234146 448.55189133 C20.03462966 448.56088807 16.26719762 448.5558243 12.49951088 448.53995867 C10.50474674 448.53506644 8.50996289 448.54476261 6.51521969 448.55513036 C-11.77260329 448.43667659 -27.42682255 441.94167597 -40.33917236 429.0093689 C-52.64679894 415.43942164 -57.23890967 400.13161994 -57.19644165 382.21977234 C-57.2001819 380.80319912 -57.20478491 379.38662796 -57.2101723 377.97006005 C-57.22237158 374.09106759 -57.22214546 370.21216157 -57.21978354 366.33315432 C-57.2193746 362.14417299 -57.23042202 357.95521909 -57.23989868 353.76625061 C-57.25649313 345.56402201 -57.26200754 337.36182216 -57.26312344 329.15957818 C-57.26407471 322.48987218 -57.26818898 315.82017565 -57.27452469 309.15047264 C-57.29213338 290.22747687 -57.30136422 271.30450377 -57.29986374 252.38149974 C-57.29978383 251.3619119 -57.29970392 250.34232405 -57.29962158 249.2918396 C-57.29949894 247.76058345 -57.29949894 247.76058345 -57.29937382 246.19839283 C-57.29856118 229.65980342 -57.3176944 213.12130513 -57.34589832 196.58274207 C-57.37465044 179.58816305 -57.38843731 162.59362843 -57.38671076 145.59902447 C-57.38604763 136.06306591 -57.39150601 126.52720286 -57.41306686 116.99126625 C-57.43130938 108.87110321 -57.43560087 100.75107899 -57.42204802 92.63090429 C-57.41553365 88.49152132 -57.41534541 84.35240442 -57.43275452 80.21304703 C-57.44855872 76.41607277 -57.44554757 72.61957393 -57.42818625 68.82261076 C-57.42369702 66.81446342 -57.43871583 64.80630089 -57.45466554 62.79821187 C-57.31873311 44.77892973 -50.22734972 29.77346617 -37.80010986 16.95858765 C-28.01225921 7.74855286 -13.71479066 0.08881709 0 0 Z M84.07098389 192.15390015 C64.00189314 212.47749023 55.77245433 238.25676289 55.75628662 266.20175171 C56.05100859 293.31617265 67.18134068 317.68867224 86.07098389 337.15390015 C107.33558347 357.16764093 133.7959829 366.89521979 162.86004639 366.42733765 C181.97464017 365.70291965 199.82544898 359.35468955 215.43426514 348.4624939 C216.30438232 348.03065796 217.17449951 347.59882202 218.07098389 347.15390015 C221.1307655 348.28351884 223.13647213 349.98079414 225.39910889 352.28671265 C226.02656006 352.92077026 226.65401123 353.55482788 227.30047607 354.20809937 C227.96724365 354.89146362 228.63401123 355.57482788 229.32098389 356.27890015 C230.36367432 357.33295044 230.36367432 357.33295044 231.4274292 358.40829468 C234.39822102 361.41176921 237.35705146 364.4269307 240.31707764 367.44100952 C242.48097322 369.64103341 244.65080465 371.83507732 246.82098389 374.02890015 C247.48775146 374.7122644 248.15451904 375.39562866 248.8414917 376.09970093 C249.46894287 376.73375854 250.09639404 377.36781616 250.74285889 378.02108765 C251.29038818 378.57909058 251.83791748 379.13709351 252.40203857 379.71200562 C256.29297946 383.07360551 259.75817687 383.60230511 264.75848389 383.4624939 C269.24260417 382.86410622 272.4206675 381.03858099 275.39129639 377.64608765 C277.99909851 373.72526628 278.53403473 370.10856163 278.60223389 365.4624939 C277.09298411 358.90391581 271.2929605 354.11047329 266.68035889 349.56796265 C265.97574524 348.86617889 265.27113159 348.16439514 264.54516602 347.44134521 C262.30844954 345.21576362 260.064857 342.99726376 257.82098389 340.77890015 C256.29708592 339.26504061 254.77364342 337.75072244 253.25067139 336.2359314 C249.52936447 332.53659602 245.80239729 328.84303967 242.07098389 325.15390015 C243.65762295 321.03900423 245.61246985 317.44037097 247.88348389 313.65390015 C261.32805979 290.43862748 264.76766005 263.10427236 258.07098389 237.15390015 C253.74467904 221.59955352 246.60670039 208.44187266 236.07098389 196.15390015 C235.5927417 195.54288452 235.11449951 194.9318689 234.62176514 194.30233765 C219.99248024 175.94237551 195.00747403 164.24825278 172.07098389 161.15390015 C171.13383545 161.01854858 170.19668701 160.88319702 169.23114014 160.7437439 C136.77794789 157.10998878 107.08019058 169.79662097 84.07098389 192.15390015 Z " fill="#724EFF" transform="translate(88.92901611328125,31.846099853515625)"/>
<path d="M0 0 C16.23038818 12.30375614 27.16470487 29.76185892 30 50 C32.12144548 70.81059105 26.40322912 89.49542465 13.625 105.9375 C1.91603805 119.45092527 -15.07751087 129.05399247 -33 131 C-55.40300062 132.27442219 -74.4137636 126.43924865 -91.57421875 111.8046875 C-100.05489884 103.77035899 -105.81760243 93.84665742 -110 83 C-110.48146484 81.75476563 -110.48146484 81.75476563 -110.97265625 80.484375 C-115.56868962 65.86257581 -114.88069965 47.12418041 -109 33 C-108.525625 31.84628906 -108.05125 30.69257813 -107.5625 29.50390625 C-99.00084905 10.71355213 -84.26232567 -2.0744004 -65.00390625 -9.32519531 C-43.53277824 -16.55548257 -18.57550469 -12.6299068 0 0 Z " fill="#794AFF" transform="translate(289,236)"/>
</svg>
